<svg xmlns="http://www.w3.org/2000/svg" viewBox="0 0 24 24" fill="currentColor"><path d="M4 6a2 2 0 0 1 2-2h2.5v2.5a2 2 0 0 1-2 2h-2.5z"/><path d="M10 6a2 2 0 0 1 2-2h2.5v2.5a2 2 0 0 1-2 2h-2.5z"/><path d="M16 6a2 2 0 0 1 2-2h2.5v2.5a2 2 0 0 1-2 2h-2.5z"/><path d="M4 12a2 2 0 0 1 2-2h2.5v2.5a2 2 0 0 1-2 2h-2.5z"/><path d="M10 12a2 2 0 0 1 2-2h2.5v2.5a2 2 0 0 1-2 2h-2.5z"/><path d="M16 12a2 2 0 0 1 2-2h2.5v2.5a2 2 0 0 1-2 2h-2.5z"/><path d="M4 18a2 2 0 0 1 2-2h2.5v2.5a2 2 0 0 1-2 2h-2.5z"/><path d="M10 18a2 2 0 0 1 2-2h2.5v2.5a2 2 0 0 1-2 2h-2.5z"/><path d="M16 18a2 2 0 0 1 2-2h2.5v2.5a2 2 0 0 1-2 2h-2.5z"/></svg>
